<svg xmlns="http://www.w3.org/2000/svg" viewBox="0 0 100 100" width="100" height="100" role="img" aria-label="Marigold"><title>Marigold — Tagetes patula</title>
  
    <path d="M 29 78 L 33 98 Q 33 100 35 100 L 65 100 Q 67 100 67 98 L 71 78 Z" fill="#B2664A"></path>
    <rect x="27" y="75" width="46" height="5" rx="1.5" fill="#C77B5D"></rect>
    <path d="M 33 98 Q 33 100 35 100 L 65 100 Q 67 100 67 98 L 65 96 L 35 96 Z" fill="#8E4A33" opacity="0.5"></path>
    <ellipse cx="50" cy="77.5" rx="19" ry="1.8" fill="#4A3429"></ellipse>
  
  
    <path d="M 50 74 Q 45 66 40 50" stroke="#3D5C3A" stroke-width="1.3" fill="none" stroke-linecap="round"></path>
    <g transform="translate(40 50)">
      
      <path d="M -4 8 L -7 10 M 4 8 L 7 10" stroke="#2F5D3A" stroke-width="1" stroke-linecap="round"></path>
      
      <ellipse cx="0" cy="-7" rx="3" ry="5" fill="#E88A3D" transform="rotate(0)"></ellipse><ellipse cx="0" cy="-7" rx="3" ry="5" fill="#E88A3D" transform="rotate(45)"></ellipse><ellipse cx="0" cy="-7" rx="3" ry="5" fill="#E88A3D" transform="rotate(90)"></ellipse><ellipse cx="0" cy="-7" rx="3" ry="5" fill="#E88A3D" transform="rotate(135)"></ellipse><ellipse cx="0" cy="-7" rx="3" ry="5" fill="#E88A3D" transform="rotate(180)"></ellipse><ellipse cx="0" cy="-7" rx="3" ry="5" fill="#E88A3D" transform="rotate(225)"></ellipse><ellipse cx="0" cy="-7" rx="3" ry="5" fill="#E88A3D" transform="rotate(270)"></ellipse><ellipse cx="0" cy="-7" rx="3" ry="5" fill="#E88A3D" transform="rotate(315)"></ellipse>
      <ellipse cx="0" cy="-4.5" rx="2.2" ry="3.5" fill="#F4C542" transform="rotate(22)"></ellipse><ellipse cx="0" cy="-4.5" rx="2.2" ry="3.5" fill="#F4C542" transform="rotate(67)"></ellipse><ellipse cx="0" cy="-4.5" rx="2.2" ry="3.5" fill="#F4C542" transform="rotate(112)"></ellipse><ellipse cx="0" cy="-4.5" rx="2.2" ry="3.5" fill="#F4C542" transform="rotate(157)"></ellipse><ellipse cx="0" cy="-4.5" rx="2.2" ry="3.5" fill="#F4C542" transform="rotate(202)"></ellipse><ellipse cx="0" cy="-4.5" rx="2.2" ry="3.5" fill="#F4C542" transform="rotate(247)"></ellipse><ellipse cx="0" cy="-4.5" rx="2.2" ry="3.5" fill="#F4C542" transform="rotate(292)"></ellipse><ellipse cx="0" cy="-4.5" rx="2.2" ry="3.5" fill="#F4C542" transform="rotate(337)"></ellipse>
      <circle cx="0" cy="0" r="2" fill="#A8342A"></circle>
    </g>
  
    <path d="M 50 74 Q 55 66 60 50" stroke="#3D5C3A" stroke-width="1.3" fill="none" stroke-linecap="round"></path>
    <g transform="translate(60 50)">
      
      <path d="M -4 8 L -7 10 M 4 8 L 7 10" stroke="#2F5D3A" stroke-width="1" stroke-linecap="round"></path>
      
      <ellipse cx="0" cy="-7" rx="3" ry="5" fill="#E88A3D" transform="rotate(0)"></ellipse><ellipse cx="0" cy="-7" rx="3" ry="5" fill="#E88A3D" transform="rotate(45)"></ellipse><ellipse cx="0" cy="-7" rx="3" ry="5" fill="#E88A3D" transform="rotate(90)"></ellipse><ellipse cx="0" cy="-7" rx="3" ry="5" fill="#E88A3D" transform="rotate(135)"></ellipse><ellipse cx="0" cy="-7" rx="3" ry="5" fill="#E88A3D" transform="rotate(180)"></ellipse><ellipse cx="0" cy="-7" rx="3" ry="5" fill="#E88A3D" transform="rotate(225)"></ellipse><ellipse cx="0" cy="-7" rx="3" ry="5" fill="#E88A3D" transform="rotate(270)"></ellipse><ellipse cx="0" cy="-7" rx="3" ry="5" fill="#E88A3D" transform="rotate(315)"></ellipse>
      <ellipse cx="0" cy="-4.5" rx="2.2" ry="3.5" fill="#F4C542" transform="rotate(22)"></ellipse><ellipse cx="0" cy="-4.5" rx="2.2" ry="3.5" fill="#F4C542" transform="rotate(67)"></ellipse><ellipse cx="0" cy="-4.5" rx="2.2" ry="3.5" fill="#F4C542" transform="rotate(112)"></ellipse><ellipse cx="0" cy="-4.5" rx="2.2" ry="3.5" fill="#F4C542" transform="rotate(157)"></ellipse><ellipse cx="0" cy="-4.5" rx="2.2" ry="3.5" fill="#F4C542" transform="rotate(202)"></ellipse><ellipse cx="0" cy="-4.5" rx="2.2" ry="3.5" fill="#F4C542" transform="rotate(247)"></ellipse><ellipse cx="0" cy="-4.5" rx="2.2" ry="3.5" fill="#F4C542" transform="rotate(292)"></ellipse><ellipse cx="0" cy="-4.5" rx="2.2" ry="3.5" fill="#F4C542" transform="rotate(337)"></ellipse>
      <circle cx="0" cy="0" r="2" fill="#A8342A"></circle>
    </g>
  
    <path d="M 50 74 Q 50 61 50 40" stroke="#3D5C3A" stroke-width="1.3" fill="none" stroke-linecap="round"></path>
    <g transform="translate(50 40)">
      
      <path d="M -4 8 L -7 10 M 4 8 L 7 10" stroke="#2F5D3A" stroke-width="1" stroke-linecap="round"></path>
      
      <ellipse cx="0" cy="-7" rx="3" ry="5" fill="#E88A3D" transform="rotate(0)"></ellipse><ellipse cx="0" cy="-7" rx="3" ry="5" fill="#E88A3D" transform="rotate(45)"></ellipse><ellipse cx="0" cy="-7" rx="3" ry="5" fill="#E88A3D" transform="rotate(90)"></ellipse><ellipse cx="0" cy="-7" rx="3" ry="5" fill="#E88A3D" transform="rotate(135)"></ellipse><ellipse cx="0" cy="-7" rx="3" ry="5" fill="#E88A3D" transform="rotate(180)"></ellipse><ellipse cx="0" cy="-7" rx="3" ry="5" fill="#E88A3D" transform="rotate(225)"></ellipse><ellipse cx="0" cy="-7" rx="3" ry="5" fill="#E88A3D" transform="rotate(270)"></ellipse><ellipse cx="0" cy="-7" rx="3" ry="5" fill="#E88A3D" transform="rotate(315)"></ellipse>
      <ellipse cx="0" cy="-4.5" rx="2.2" ry="3.5" fill="#F4C542" transform="rotate(22)"></ellipse><ellipse cx="0" cy="-4.5" rx="2.2" ry="3.5" fill="#F4C542" transform="rotate(67)"></ellipse><ellipse cx="0" cy="-4.5" rx="2.2" ry="3.5" fill="#F4C542" transform="rotate(112)"></ellipse><ellipse cx="0" cy="-4.5" rx="2.2" ry="3.5" fill="#F4C542" transform="rotate(157)"></ellipse><ellipse cx="0" cy="-4.5" rx="2.2" ry="3.5" fill="#F4C542" transform="rotate(202)"></ellipse><ellipse cx="0" cy="-4.5" rx="2.2" ry="3.5" fill="#F4C542" transform="rotate(247)"></ellipse><ellipse cx="0" cy="-4.5" rx="2.2" ry="3.5" fill="#F4C542" transform="rotate(292)"></ellipse><ellipse cx="0" cy="-4.5" rx="2.2" ry="3.5" fill="#F4C542" transform="rotate(337)"></ellipse>
      <circle cx="0" cy="0" r="2" fill="#A8342A"></circle>
    </g>
  
</svg>