<svg xmlns="http://www.w3.org/2000/svg" viewBox="0 0 100 100" width="100" height="100" role="img" aria-label="Bramen"><title>Bramen — Rubus fruticosus</title>
  <path d="M 50 90 Q 44 64 40 44 Q 36 28 38 14" stroke="#6B4A35" stroke-width="1.6" fill="none" stroke-linecap="round"></path>
  <path d="M 50 90 Q 56 64 60 44 Q 64 28 62 14" stroke="#6B4A35" stroke-width="1.6" fill="none" stroke-linecap="round"></path>
  <path d="M 50 90 Q 50 60 50 30" stroke="#6B4A35" stroke-width="1.4" fill="none" stroke-linecap="round"></path>
  <path d="M 42 70 L 40 66 M 44 56 L 42 52 M 46 42 L 44 38 M 58 70 L 60 66 M 56 56 L 58 52 M 54 42 L 56 38" stroke="#6B4A35" stroke-width="0.5"></path>
  <g transform="translate(34 58) rotate(-30) scale(1.05)">
    <path d="M 0 0 Q -6 -4 -6 -10 Q -3 -14 0 -10 Q 3 -14 6 -10 Q 6 -4 0 0 Z" fill="#2F5D3A"></path>
    <path d="M -8 -2 Q -12 -4 -12 -9 Q -10 -11 -8 -9 Q -6 -11 -6 -7 Q -6 -3 -8 -2 Z" fill="#4A7C4E"></path>
    <path d="M 8 -2 Q 12 -4 12 -9 Q 10 -11 8 -9 Q 6 -11 6 -7 Q 6 -3 8 -2 Z" fill="#4A7C4E"></path>
  </g>
  <g transform="translate(66 56) rotate(30) scale(1.05)">
    <path d="M 0 0 Q -6 -4 -6 -10 Q -3 -14 0 -10 Q 3 -14 6 -10 Q 6 -4 0 0 Z" fill="#2F5D3A"></path>
    <path d="M -8 -2 Q -12 -4 -12 -9 Q -10 -11 -8 -9 Q -6 -11 -6 -7 Q -6 -3 -8 -2 Z" fill="#4A7C4E"></path>
    <path d="M 8 -2 Q 12 -4 12 -9 Q 10 -11 8 -9 Q 6 -11 6 -7 Q 6 -3 8 -2 Z" fill="#4A7C4E"></path>
  </g>
  <g transform="translate(36 40) rotate(-20) scale(1)">
    <path d="M 0 0 Q -6 -4 -6 -10 Q -3 -14 0 -10 Q 3 -14 6 -10 Q 6 -4 0 0 Z" fill="#2F5D3A"></path>
    <path d="M -8 -2 Q -12 -4 -12 -9 Q -10 -11 -8 -9 Q -6 -11 -6 -7 Q -6 -3 -8 -2 Z" fill="#4A7C4E"></path>
    <path d="M 8 -2 Q 12 -4 12 -9 Q 10 -11 8 -9 Q 6 -11 6 -7 Q 6 -3 8 -2 Z" fill="#4A7C4E"></path>
  </g>
  <g transform="translate(64 40) rotate(20) scale(1)">
    <path d="M 0 0 Q -6 -4 -6 -10 Q -3 -14 0 -10 Q 3 -14 6 -10 Q 6 -4 0 0 Z" fill="#2F5D3A"></path>
    <path d="M -8 -2 Q -12 -4 -12 -9 Q -10 -11 -8 -9 Q -6 -11 -6 -7 Q -6 -3 -8 -2 Z" fill="#4A7C4E"></path>
    <path d="M 8 -2 Q 12 -4 12 -9 Q 10 -11 8 -9 Q 6 -11 6 -7 Q 6 -3 8 -2 Z" fill="#4A7C4E"></path>
  </g>
  <g transform="translate(50 24) rotate(0) scale(1.05)">
    <path d="M 0 0 Q -6 -4 -6 -10 Q -3 -14 0 -10 Q 3 -14 6 -10 Q 6 -4 0 0 Z" fill="#2F5D3A"></path>
    <path d="M -8 -2 Q -12 -4 -12 -9 Q -10 -11 -8 -9 Q -6 -11 -6 -7 Q -6 -3 -8 -2 Z" fill="#4A7C4E"></path>
    <path d="M 8 -2 Q 12 -4 12 -9 Q 10 -11 8 -9 Q 6 -11 6 -7 Q 6 -3 8 -2 Z" fill="#4A7C4E"></path>
  </g>
  <g transform="translate(42 66)">
    <circle cx="-2.16" cy="0" r="2.4" fill="#3D2A4A"></circle>
    <circle cx="2.16" cy="0" r="2.4" fill="#3D2A4A"></circle>
    <circle cx="0" cy="-2.16" r="2.4" fill="#3D2A4A"></circle>
    <circle cx="0" cy="2.16" r="2.4" fill="#3D2A4A"></circle>
    <circle cx="0" cy="0" r="2.4" fill="#3D2A4A"></circle>
    <circle cx="-0.96" cy="-0.96" r="0.96" fill="#6B4A94" opacity="0.7"></circle>
    <circle cx="1.2" cy="0.72" r="0.72" fill="#6B4A94" opacity="0.5"></circle>
  </g>
  <g transform="translate(58 62)">
    <circle cx="-2.16" cy="0" r="2.4" fill="#3D2A4A"></circle>
    <circle cx="2.16" cy="0" r="2.4" fill="#3D2A4A"></circle>
    <circle cx="0" cy="-2.16" r="2.4" fill="#3D2A4A"></circle>
    <circle cx="0" cy="2.16" r="2.4" fill="#3D2A4A"></circle>
    <circle cx="0" cy="0" r="2.4" fill="#3D2A4A"></circle>
    <circle cx="-0.96" cy="-0.96" r="0.96" fill="#6B4A94" opacity="0.7"></circle>
    <circle cx="1.2" cy="0.72" r="0.72" fill="#6B4A94" opacity="0.5"></circle>
  </g>
  <g transform="translate(46 50)">
    <circle cx="-1.9800000000000002" cy="0" r="2.2" fill="#3D2A4A"></circle>
    <circle cx="1.9800000000000002" cy="0" r="2.2" fill="#3D2A4A"></circle>
    <circle cx="0" cy="-1.9800000000000002" r="2.2" fill="#3D2A4A"></circle>
    <circle cx="0" cy="1.9800000000000002" r="2.2" fill="#3D2A4A"></circle>
    <circle cx="0" cy="0" r="2.2" fill="#3D2A4A"></circle>
    <circle cx="-0.8800000000000001" cy="-0.8800000000000001" r="0.8800000000000001" fill="#6B4A94" opacity="0.7"></circle>
    <circle cx="1.1" cy="0.66" r="0.66" fill="#6B4A94" opacity="0.5"></circle>
  </g>
  <g transform="translate(54 42)">
    <circle cx="-1.8" cy="0" r="2" fill="#3D2A4A"></circle>
    <circle cx="1.8" cy="0" r="2" fill="#3D2A4A"></circle>
    <circle cx="0" cy="-1.8" r="2" fill="#3D2A4A"></circle>
    <circle cx="0" cy="1.8" r="2" fill="#3D2A4A"></circle>
    <circle cx="0" cy="0" r="2" fill="#3D2A4A"></circle>
    <circle cx="-0.8" cy="-0.8" r="0.8" fill="#6B4A94" opacity="0.7"></circle>
    <circle cx="1" cy="0.6" r="0.6" fill="#6B4A94" opacity="0.5"></circle>
  </g>
  <path d="M 24 92 Q 50 90 76 92" stroke="#6B4A35" stroke-width="0.8" fill="none" opacity="0.3" stroke-dasharray="1.5 2"></path>
</svg>