<svg xmlns="http://www.w3.org/2000/svg" viewBox="0 0 100 100" width="100" height="100" role="img" aria-label="Fuchsia"><title>Fuchsia — Fuchsia magellanica</title><path d="M 22 90 Q 50 88 78 90" stroke="#6B4A35" stroke-width="0.8" fill="none" opacity="0.3" stroke-dasharray="1.5 2"></path><ellipse cx="50" cy="82" rx="9" ry="2.6" fill="#3D5C3A" opacity="0.55"></ellipse>
  
    
    
    
    
  
  <path d="M 50 78 Q 50 60 50 38 Q 46 30 38 28" stroke="#3D5C3A" stroke-width="1.4" fill="none" stroke-linecap="round"></path>
  <path d="M 50 78 Q 50 60 50 38 Q 54 30 62 28" stroke="#3D5C3A" stroke-width="1.4" fill="none" stroke-linecap="round"></path>
  
  <path d="M 50 60 Q 38 54 32 60 Q 40 66 50 64 Z" fill="#2F5D3A"></path>
  <path d="M 50 60 Q 62 54 68 60 Q 60 66 50 64 Z" fill="#2F5D3A"></path>
  
  
    <path d="M 30 30 Q 29 34 34 38 Q 39 34 38 30 Z" fill="#D94A3D"></path>
    <ellipse cx="34" cy="40" rx="3" ry="4" fill="#8E6BB8"></ellipse>
    <path d="M 32 44 L 31 47 M 36 44 L 37 47 M 34 44 L 34 48" stroke="#8E6BB8" stroke-width="0.8" stroke-linecap="round"></path>
  
    <path d="M 46 38 Q 45 42 50 46 Q 55 42 54 38 Z" fill="#D94A3D"></path>
    <ellipse cx="50" cy="48" rx="3" ry="4" fill="#8E6BB8"></ellipse>
    <path d="M 48 52 L 47 55 M 52 52 L 53 55 M 50 52 L 50 56" stroke="#8E6BB8" stroke-width="0.8" stroke-linecap="round"></path>
  
    <path d="M 62 30 Q 61 34 66 38 Q 71 34 70 30 Z" fill="#D94A3D"></path>
    <ellipse cx="66" cy="40" rx="3" ry="4" fill="#8E6BB8"></ellipse>
    <path d="M 64 44 L 63 47 M 68 44 L 69 47 M 66 44 L 66 48" stroke="#8E6BB8" stroke-width="0.8" stroke-linecap="round"></path>
  
</svg>