<svg xmlns="http://www.w3.org/2000/svg" viewBox="0 0 100 100" width="100" height="100" role="img" aria-label="Sperziebonen"><title>Sperziebonen — Phaseolus vulgaris</title>
  <path d="M 28 76 L 32 96 Q 32 98 34 98 L 66 98 Q 68 98 68 96 L 72 76 Z" fill="#B2664A"></path>
  <rect x="26" y="73" width="48" height="5" rx="1.5" fill="#C77B5D"></rect>
  <path d="M 32 96 Q 32 98 34 98 L 66 98 Q 68 98 68 96 L 66 94 L 34 94 Z" fill="#8E4A33" opacity="0.5"></path>
  <ellipse cx="50" cy="75.5" rx="20" ry="1.8" fill="#4A3429"></ellipse>
  <g transform="translate(38 60) rotate(-25) scale(1.1)">
    <path d="M 0 0 Q -6 -2 -7 -8 Q -4 -12 0 -10 Q 4 -12 7 -8 Q 6 -2 0 0 Z" fill="#4A7C4E"></path>
    <path d="M 0 -1 L 0 -10" stroke="#2F5D3A" stroke-width="0.4"></path>
  </g>
  <g transform="translate(62 60) rotate(25) scale(1.1)">
    <path d="M 0 0 Q -6 -2 -7 -8 Q -4 -12 0 -10 Q 4 -12 7 -8 Q 6 -2 0 0 Z" fill="#4A7C4E"></path>
    <path d="M 0 -1 L 0 -10" stroke="#2F5D3A" stroke-width="0.4"></path>
  </g>
  <g transform="translate(50 52) rotate(0) scale(1.2)">
    <path d="M 0 0 Q -6 -2 -7 -8 Q -4 -12 0 -10 Q 4 -12 7 -8 Q 6 -2 0 0 Z" fill="#4A7C4E"></path>
    <path d="M 0 -1 L 0 -10" stroke="#2F5D3A" stroke-width="0.4"></path>
  </g>
  <g transform="translate(40 46) rotate(-15) scale(1)">
    <path d="M 0 0 Q -6 -2 -7 -8 Q -4 -12 0 -10 Q 4 -12 7 -8 Q 6 -2 0 0 Z" fill="#4A7C4E"></path>
    <path d="M 0 -1 L 0 -10" stroke="#2F5D3A" stroke-width="0.4"></path>
  </g>
  <g transform="translate(60 46) rotate(15) scale(1)">
    <path d="M 0 0 Q -6 -2 -7 -8 Q -4 -12 0 -10 Q 4 -12 7 -8 Q 6 -2 0 0 Z" fill="#4A7C4E"></path>
    <path d="M 0 -1 L 0 -10" stroke="#2F5D3A" stroke-width="0.4"></path>
  </g>
  <g transform="translate(50 38) rotate(0) scale(1)">
    <path d="M 0 0 Q -6 -2 -7 -8 Q -4 -12 0 -10 Q 4 -12 7 -8 Q 6 -2 0 0 Z" fill="#4A7C4E"></path>
    <path d="M 0 -1 L 0 -10" stroke="#2F5D3A" stroke-width="0.4"></path>
  </g>
  <g transform="translate(35 58) rotate(15)">
    <path d="M -1.4 0 Q -2 6 0 14 Q 2 6 1.4 0 Z" fill="#5C8A4E"></path>
    <path d="M -1.4 0 L 1.4 0" stroke="#3D6A32" stroke-width="0.4"></path>
    <circle cx="0" cy="4" r="0.6" fill="#3D6A32" opacity="0.5"></circle>
    <circle cx="0" cy="7" r="0.6" fill="#3D6A32" opacity="0.5"></circle>
    <circle cx="0" cy="10" r="0.6" fill="#3D6A32" opacity="0.5"></circle>
  </g>
  <g transform="translate(40 68) rotate(5)">
    <path d="M -1.4 0 Q -2 6 0 14 Q 2 6 1.4 0 Z" fill="#5C8A4E"></path>
    <path d="M -1.4 0 L 1.4 0" stroke="#3D6A32" stroke-width="0.4"></path>
    <circle cx="0" cy="4" r="0.6" fill="#3D6A32" opacity="0.5"></circle>
    <circle cx="0" cy="7" r="0.6" fill="#3D6A32" opacity="0.5"></circle>
    <circle cx="0" cy="10" r="0.6" fill="#3D6A32" opacity="0.5"></circle>
  </g>
  <g transform="translate(58 64) rotate(-15)">
    <path d="M -1.4 0 Q -2 6 0 14 Q 2 6 1.4 0 Z" fill="#5C8A4E"></path>
    <path d="M -1.4 0 L 1.4 0" stroke="#3D6A32" stroke-width="0.4"></path>
    <circle cx="0" cy="4" r="0.6" fill="#3D6A32" opacity="0.5"></circle>
    <circle cx="0" cy="7" r="0.6" fill="#3D6A32" opacity="0.5"></circle>
    <circle cx="0" cy="10" r="0.6" fill="#3D6A32" opacity="0.5"></circle>
  </g>
  <g transform="translate(64 56) rotate(-5)">
    <path d="M -1.4 0 Q -2 6 0 14 Q 2 6 1.4 0 Z" fill="#5C8A4E"></path>
    <path d="M -1.4 0 L 1.4 0" stroke="#3D6A32" stroke-width="0.4"></path>
    <circle cx="0" cy="4" r="0.6" fill="#3D6A32" opacity="0.5"></circle>
    <circle cx="0" cy="7" r="0.6" fill="#3D6A32" opacity="0.5"></circle>
    <circle cx="0" cy="10" r="0.6" fill="#3D6A32" opacity="0.5"></circle>
  </g>
  <g transform="translate(50 62) rotate(0)">
    <path d="M -1.4 0 Q -2 6 0 14 Q 2 6 1.4 0 Z" fill="#5C8A4E"></path>
    <path d="M -1.4 0 L 1.4 0" stroke="#3D6A32" stroke-width="0.4"></path>
    <circle cx="0" cy="4" r="0.6" fill="#3D6A32" opacity="0.5"></circle>
    <circle cx="0" cy="7" r="0.6" fill="#3D6A32" opacity="0.5"></circle>
    <circle cx="0" cy="10" r="0.6" fill="#3D6A32" opacity="0.5"></circle>
  </g>
  <path d="M 50 74 L 50 42" stroke="#3D5C3A" stroke-width="1.3" fill="none" stroke-linecap="round"></path>
</svg>