<svg xmlns="http://www.w3.org/2000/svg" viewBox="0 0 100 100" width="100" height="100" role="img" aria-label="Jadeplant"><title>Jadeplant — Crassula ovata</title>
  
    <path d="M 29 76 L 33 96 Q 33 98 35 98 L 65 98 Q 67 98 67 96 L 71 76 Z" fill="#B2664A"></path>
    <rect x="27" y="73" width="46" height="5" rx="1.5" fill="#C77B5D"></rect>
    <path d="M 33 96 Q 33 98 35 98 L 65 98 Q 67 98 67 96 L 65 94 L 35 94 Z" fill="#8E4A33" opacity="0.5"></path>
    <ellipse cx="50" cy="75.5" rx="19" ry="1.8" fill="#4A3429"></ellipse>
  
  <path d="M 50 76 Q 50 58 50 44" stroke="#6B4A35" stroke-width="2.4" fill="none" stroke-linecap="round"></path>
  <path d="M 50 60 L 40 52 M 50 60 L 60 52 M 50 48 L 44 40 M 50 48 L 56 40" stroke="#6B4A35" stroke-width="1.6" fill="none" stroke-linecap="round"></path>
  
    <ellipse cx="40" cy="52" rx="4.5" ry="3.5" fill="#4A7C4E"></ellipse>
    <ellipse cx="39" cy="51" rx="1.4" ry="1" fill="#6DA86F" opacity="0.7"></ellipse>
  
    <ellipse cx="60" cy="52" rx="4.5" ry="3.5" fill="#4A7C4E"></ellipse>
    <ellipse cx="59" cy="51" rx="1.4" ry="1" fill="#6DA86F" opacity="0.7"></ellipse>
  
    <ellipse cx="44" cy="40" rx="4.5" ry="3.5" fill="#4A7C4E"></ellipse>
    <ellipse cx="43" cy="39" rx="1.4" ry="1" fill="#6DA86F" opacity="0.7"></ellipse>
  
    <ellipse cx="56" cy="40" rx="4.5" ry="3.5" fill="#4A7C4E"></ellipse>
    <ellipse cx="55" cy="39" rx="1.4" ry="1" fill="#6DA86F" opacity="0.7"></ellipse>
  
    <ellipse cx="50" cy="36" rx="4.5" ry="3.5" fill="#4A7C4E"></ellipse>
    <ellipse cx="49" cy="35" rx="1.4" ry="1" fill="#6DA86F" opacity="0.7"></ellipse>
  
    <ellipse cx="36" cy="48" rx="4.5" ry="3.5" fill="#4A7C4E"></ellipse>
    <ellipse cx="35" cy="47" rx="1.4" ry="1" fill="#6DA86F" opacity="0.7"></ellipse>
  
    <ellipse cx="64" cy="48" rx="4.5" ry="3.5" fill="#4A7C4E"></ellipse>
    <ellipse cx="63" cy="47" rx="1.4" ry="1" fill="#6DA86F" opacity="0.7"></ellipse>
  
    <ellipse cx="40" cy="36" rx="4.5" ry="3.5" fill="#4A7C4E"></ellipse>
    <ellipse cx="39" cy="35" rx="1.4" ry="1" fill="#6DA86F" opacity="0.7"></ellipse>
  
    <ellipse cx="60" cy="36" rx="4.5" ry="3.5" fill="#4A7C4E"></ellipse>
    <ellipse cx="59" cy="35" rx="1.4" ry="1" fill="#6DA86F" opacity="0.7"></ellipse>
  
    <ellipse cx="50" cy="44" rx="4.5" ry="3.5" fill="#4A7C4E"></ellipse>
    <ellipse cx="49" cy="43" rx="1.4" ry="1" fill="#6DA86F" opacity="0.7"></ellipse>
  
    <ellipse cx="38" cy="44" rx="4.5" ry="3.5" fill="#4A7C4E"></ellipse>
    <ellipse cx="37" cy="43" rx="1.4" ry="1" fill="#6DA86F" opacity="0.7"></ellipse>
  
    <ellipse cx="62" cy="44" rx="4.5" ry="3.5" fill="#4A7C4E"></ellipse>
    <ellipse cx="61" cy="43" rx="1.4" ry="1" fill="#6DA86F" opacity="0.7"></ellipse>
  
</svg>