<svg xmlns="http://www.w3.org/2000/svg" viewBox="0 0 100 100" width="100" height="100" role="img" aria-label="Ui"><title>Ui — Allium cepa</title>
  <path d="M 28 76 L 32 96 Q 32 98 34 98 L 66 98 Q 68 98 68 96 L 72 76 Z" fill="#B2664A"></path>
  <rect x="26" y="73" width="48" height="5" rx="1.5" fill="#C77B5D"></rect>
  <path d="M 32 96 Q 32 98 34 98 L 66 98 Q 68 98 68 96 L 66 94 L 34 94 Z" fill="#8E4A33" opacity="0.5"></path>
  <ellipse cx="50" cy="75.5" rx="20" ry="1.8" fill="#4A3429"></ellipse>
  
  <ellipse cx="50" cy="73" rx="8" ry="2.6" fill="#C97B4A"></ellipse>
  <ellipse cx="50" cy="72.5" rx="6" ry="1.4" fill="#E89A6A" opacity="0.7"></ellipse>
  <path d="M 44 71 Q 50 69 56 71" stroke="#8E4A33" stroke-width="0.5" fill="none"></path>
  
  <path d="M 46 72 Q 43 52 44.2 32" stroke="#4A7C4E" stroke-width="2.4" fill="none" stroke-linecap="round"></path>
  <path d="M 46 72 Q 43 52 44.2 32" stroke="#6DA86F" stroke-width="0.8" fill="none" stroke-linecap="round"></path>
  <path d="M 54 72 Q 57 51 55.8 30" stroke="#4A7C4E" stroke-width="2.4" fill="none" stroke-linecap="round"></path>
  <path d="M 54 72 Q 57 51 55.8 30" stroke="#6DA86F" stroke-width="0.8" fill="none" stroke-linecap="round"></path>
  <path d="M 50 71 Q 50 46.5 50 22" stroke="#4A7C4E" stroke-width="2.4" fill="none" stroke-linecap="round"></path>
  <path d="M 50 71 Q 50 46.5 50 22" stroke="#6DA86F" stroke-width="0.8" fill="none" stroke-linecap="round"></path>
  <path d="M 42 72 Q 36 58 38.4 44" stroke="#4A7C4E" stroke-width="2.4" fill="none" stroke-linecap="round"></path>
  <path d="M 42 72 Q 36 58 38.4 44" stroke="#6DA86F" stroke-width="0.8" fill="none" stroke-linecap="round"></path>
  <path d="M 58 72 Q 64 57 61.6 42" stroke="#4A7C4E" stroke-width="2.4" fill="none" stroke-linecap="round"></path>
  <path d="M 58 72 Q 64 57 61.6 42" stroke="#6DA86F" stroke-width="0.8" fill="none" stroke-linecap="round"></path>
</svg>