<svg xmlns="http://www.w3.org/2000/svg" viewBox="0 0 100 100" width="100" height="100" role="img" aria-label="Rabarber"><title>Rabarber — Rheum × hybridum</title>
  <path d="M 28 76 L 32 96 Q 32 98 34 98 L 66 98 Q 68 98 68 96 L 72 76 Z" fill="#B2664A"></path>
  <rect x="26" y="73" width="48" height="5" rx="1.5" fill="#C77B5D"></rect>
  <path d="M 32 96 Q 32 98 34 98 L 66 98 Q 68 98 68 96 L 66 94 L 34 94 Z" fill="#8E4A33" opacity="0.5"></path>
  <ellipse cx="50" cy="75.5" rx="20" ry="1.8" fill="#4A3429"></ellipse>
  
  <path d="M 50 74 L 38 50" stroke="#D94A3D" stroke-width="2.2" stroke-linecap="round"></path>
  <path d="M 50 74 L 50 44" stroke="#D94A3D" stroke-width="2.4" stroke-linecap="round"></path>
  <path d="M 50 74 L 62 50" stroke="#D94A3D" stroke-width="2.2" stroke-linecap="round"></path>
  <path d="M 50 74 L 30 60" stroke="#D94A3D" stroke-width="2" stroke-linecap="round"></path>
  <path d="M 50 74 L 70 60" stroke="#D94A3D" stroke-width="2" stroke-linecap="round"></path>
  <g transform="translate(38 50) rotate(-15) scale(1)">
    <path d="M 0 0 Q -8 -4 -12 -8 Q -16 -14 -10 -16 Q -4 -18 -2 -14 Q -6 -20 -2 -22 Q 0 -20 0 -16 Q 0 -20 2 -22 Q 6 -20 2 -14 Q 4 -18 10 -16 Q 16 -14 12 -8 Q 8 -4 0 0 Z" fill="#3D6A32"></path>
    <path d="M 0 0 L 0 -16" stroke="#2F5D3A" stroke-width="0.6"></path>
    <path d="M -6 -8 L 0 -12 M 6 -8 L 0 -12 M -4 -14 L 0 -14 M 4 -14 L 0 -14" stroke="#2F5D3A" stroke-width="0.4" opacity="0.5"></path>
  </g>
  <g transform="translate(50 44) rotate(0) scale(1.1)">
    <path d="M 0 0 Q -8 -4 -12 -8 Q -16 -14 -10 -16 Q -4 -18 -2 -14 Q -6 -20 -2 -22 Q 0 -20 0 -16 Q 0 -20 2 -22 Q 6 -20 2 -14 Q 4 -18 10 -16 Q 16 -14 12 -8 Q 8 -4 0 0 Z" fill="#3D6A32"></path>
    <path d="M 0 0 L 0 -16" stroke="#2F5D3A" stroke-width="0.6"></path>
    <path d="M -6 -8 L 0 -12 M 6 -8 L 0 -12 M -4 -14 L 0 -14 M 4 -14 L 0 -14" stroke="#2F5D3A" stroke-width="0.4" opacity="0.5"></path>
  </g>
  <g transform="translate(62 50) rotate(15) scale(1)">
    <path d="M 0 0 Q -8 -4 -12 -8 Q -16 -14 -10 -16 Q -4 -18 -2 -14 Q -6 -20 -2 -22 Q 0 -20 0 -16 Q 0 -20 2 -22 Q 6 -20 2 -14 Q 4 -18 10 -16 Q 16 -14 12 -8 Q 8 -4 0 0 Z" fill="#3D6A32"></path>
    <path d="M 0 0 L 0 -16" stroke="#2F5D3A" stroke-width="0.6"></path>
    <path d="M -6 -8 L 0 -12 M 6 -8 L 0 -12 M -4 -14 L 0 -14 M 4 -14 L 0 -14" stroke="#2F5D3A" stroke-width="0.4" opacity="0.5"></path>
  </g>
  <g transform="translate(30 60) rotate(-40) scale(0.9)">
    <path d="M 0 0 Q -8 -4 -12 -8 Q -16 -14 -10 -16 Q -4 -18 -2 -14 Q -6 -20 -2 -22 Q 0 -20 0 -16 Q 0 -20 2 -22 Q 6 -20 2 -14 Q 4 -18 10 -16 Q 16 -14 12 -8 Q 8 -4 0 0 Z" fill="#3D6A32"></path>
    <path d="M 0 0 L 0 -16" stroke="#2F5D3A" stroke-width="0.6"></path>
    <path d="M -6 -8 L 0 -12 M 6 -8 L 0 -12 M -4 -14 L 0 -14 M 4 -14 L 0 -14" stroke="#2F5D3A" stroke-width="0.4" opacity="0.5"></path>
  </g>
  <g transform="translate(70 60) rotate(40) scale(0.9)">
    <path d="M 0 0 Q -8 -4 -12 -8 Q -16 -14 -10 -16 Q -4 -18 -2 -14 Q -6 -20 -2 -22 Q 0 -20 0 -16 Q 0 -20 2 -22 Q 6 -20 2 -14 Q 4 -18 10 -16 Q 16 -14 12 -8 Q 8 -4 0 0 Z" fill="#3D6A32"></path>
    <path d="M 0 0 L 0 -16" stroke="#2F5D3A" stroke-width="0.6"></path>
    <path d="M -6 -8 L 0 -12 M 6 -8 L 0 -12 M -4 -14 L 0 -14 M 4 -14 L 0 -14" stroke="#2F5D3A" stroke-width="0.4" opacity="0.5"></path>
  </g>
</svg>