<svg xmlns="http://www.w3.org/2000/svg" viewBox="0 0 100 100" width="100" height="100" role="img" aria-label="Bossalie"><title>Bossalie — Salvia nemorosa</title>
  <path d="M 22 92 Q 50 90 78 92" stroke="#6B4A35" stroke-width="0.8" fill="none" opacity="0.3" stroke-dasharray="1.5 2"/>
  <g transform="translate(50 88) rotate(-56) scale(0.68)"><path d="M 0 0 Q -6 -14 -5 -30 Q -3 -40 0 -41 Q 3 -40 5 -30 Q 6 -14 0 0 Z" fill="#4A6E4A"/><path d="M 0 -3 L 0 -30" stroke="#C9DDB4" stroke-width="0.8" stroke-linecap="round" opacity="0.8"/></g><g transform="translate(50 88) rotate(-28) scale(0.85)"><path d="M 0 0 Q -6 -14 -5 -30 Q -3 -40 0 -41 Q 3 -40 5 -30 Q 6 -14 0 0 Z" fill="#5C8256"/><path d="M 0 -3 L 0 -30" stroke="#C9DDB4" stroke-width="0.8" stroke-linecap="round" opacity="0.8"/></g><g transform="translate(50 88) rotate(0) scale(0.92)"><path d="M 0 0 Q -6 -14 -5 -30 Q -3 -40 0 -41 Q 3 -40 5 -30 Q 6 -14 0 0 Z" fill="#4A6E4A"/><path d="M 0 -3 L 0 -30" stroke="#C9DDB4" stroke-width="0.8" stroke-linecap="round" opacity="0.8"/></g><g transform="translate(50 88) rotate(28) scale(0.85)"><path d="M 0 0 Q -6 -14 -5 -30 Q -3 -40 0 -41 Q 3 -40 5 -30 Q 6 -14 0 0 Z" fill="#5C8256"/><path d="M 0 -3 L 0 -30" stroke="#C9DDB4" stroke-width="0.8" stroke-linecap="round" opacity="0.8"/></g><g transform="translate(50 88) rotate(56) scale(0.68)"><path d="M 0 0 Q -6 -14 -5 -30 Q -3 -40 0 -41 Q 3 -40 5 -30 Q 6 -14 0 0 Z" fill="#4A6E4A"/><path d="M 0 -3 L 0 -30" stroke="#C9DDB4" stroke-width="0.8" stroke-linecap="round" opacity="0.8"/></g><path d="M 34 78 Q 33 59 34 40" stroke="#3D5C3A" stroke-width="1.1" fill="none" stroke-linecap="round"/><circle cx="30" cy="78" r="1.9" fill="#5A4A9E"/><circle cx="38" cy="78" r="1.9" fill="#5A4A9E"/><circle cx="34" cy="76.1" r="1.52" fill="#5A4A9E" opacity="0.85"/><circle cx="30.366666666666667" cy="71.66666666666667" r="1.9" fill="#5A4A9E"/><circle cx="37.63333333333333" cy="71.66666666666667" r="1.9" fill="#5A4A9E"/><circle cx="34" cy="69.76666666666667" r="1.52" fill="#5A4A9E" opacity="0.85"/><circle cx="30.733333333333334" cy="65.33333333333333" r="1.9" fill="#5A4A9E"/><circle cx="37.266666666666666" cy="65.33333333333333" r="1.9" fill="#5A4A9E"/><circle cx="34" cy="63.43333333333333" r="1.52" fill="#5A4A9E" opacity="0.85"/><circle cx="31.1" cy="59" r="1.9" fill="#5A4A9E"/><circle cx="36.9" cy="59" r="1.9" fill="#5A4A9E"/><circle cx="34" cy="57.1" r="1.52" fill="#5A4A9E" opacity="0.85"/><circle cx="31.46666666666667" cy="52.66666666666667" r="1.9" fill="#5A4A9E"/><circle cx="36.53333333333333" cy="52.66666666666667" r="1.9" fill="#5A4A9E"/><circle cx="34" cy="50.76666666666667" r="1.52" fill="#5A4A9E" opacity="0.85"/><circle cx="31.833333333333332" cy="46.33333333333333" r="1.9" fill="#5A4A9E"/><circle cx="36.166666666666664" cy="46.33333333333333" r="1.9" fill="#5A4A9E"/><circle cx="34" cy="44.43333333333333" r="1.52" fill="#5A4A9E" opacity="0.85"/><circle cx="32.2" cy="40" r="1.9" fill="#5A4A9E"/><circle cx="35.8" cy="40" r="1.9" fill="#5A4A9E"/><circle cx="34" cy="38.1" r="1.52" fill="#5A4A9E" opacity="0.85"/><path d="M 50 80 Q 49 54 50 28" stroke="#3D5C3A" stroke-width="1.1" fill="none" stroke-linecap="round"/><circle cx="46" cy="80" r="1.9" fill="#6B57B5"/><circle cx="54" cy="80" r="1.9" fill="#6B57B5"/><circle cx="50" cy="78.1" r="1.52" fill="#6B57B5" opacity="0.85"/><circle cx="46.36666666666667" cy="71.33333333333333" r="1.9" fill="#6B57B5"/><circle cx="53.63333333333333" cy="71.33333333333333" r="1.9" fill="#6B57B5"/><circle cx="50" cy="69.43333333333332" r="1.52" fill="#6B57B5" opacity="0.85"/><circle cx="46.733333333333334" cy="62.66666666666667" r="1.9" fill="#6B57B5"/><circle cx="53.266666666666666" cy="62.66666666666667" r="1.9" fill="#6B57B5"/><circle cx="50" cy="60.76666666666667" r="1.52" fill="#6B57B5" opacity="0.85"/><circle cx="47.1" cy="54" r="1.9" fill="#6B57B5"/><circle cx="52.9" cy="54" r="1.9" fill="#6B57B5"/><circle cx="50" cy="52.1" r="1.52" fill="#6B57B5" opacity="0.85"/><circle cx="47.46666666666667" cy="45.333333333333336" r="1.9" fill="#6B57B5"/><circle cx="52.53333333333333" cy="45.333333333333336" r="1.9" fill="#6B57B5"/><circle cx="50" cy="43.43333333333334" r="1.52" fill="#6B57B5" opacity="0.85"/><circle cx="47.833333333333336" cy="36.666666666666664" r="1.9" fill="#6B57B5"/><circle cx="52.166666666666664" cy="36.666666666666664" r="1.9" fill="#6B57B5"/><circle cx="50" cy="34.766666666666666" r="1.52" fill="#6B57B5" opacity="0.85"/><circle cx="48.2" cy="28" r="1.9" fill="#6B57B5"/><circle cx="51.8" cy="28" r="1.9" fill="#6B57B5"/><circle cx="50" cy="26.1" r="1.52" fill="#6B57B5" opacity="0.85"/><path d="M 66 78 Q 65 60 66 42" stroke="#3D5C3A" stroke-width="1.1" fill="none" stroke-linecap="round"/><circle cx="62" cy="78" r="1.9" fill="#4E3F8C"/><circle cx="70" cy="78" r="1.9" fill="#4E3F8C"/><circle cx="66" cy="76.1" r="1.52" fill="#4E3F8C" opacity="0.85"/><circle cx="62.36666666666667" cy="72" r="1.9" fill="#4E3F8C"/><circle cx="69.63333333333334" cy="72" r="1.9" fill="#4E3F8C"/><circle cx="66" cy="70.1" r="1.52" fill="#4E3F8C" opacity="0.85"/><circle cx="62.733333333333334" cy="66" r="1.9" fill="#4E3F8C"/><circle cx="69.26666666666667" cy="66" r="1.9" fill="#4E3F8C"/><circle cx="66" cy="64.1" r="1.52" fill="#4E3F8C" opacity="0.85"/><circle cx="63.1" cy="60" r="1.9" fill="#4E3F8C"/><circle cx="68.9" cy="60" r="1.9" fill="#4E3F8C"/><circle cx="66" cy="58.1" r="1.52" fill="#4E3F8C" opacity="0.85"/><circle cx="63.46666666666667" cy="54" r="1.9" fill="#4E3F8C"/><circle cx="68.53333333333333" cy="54" r="1.9" fill="#4E3F8C"/><circle cx="66" cy="52.1" r="1.52" fill="#4E3F8C" opacity="0.85"/><circle cx="63.833333333333336" cy="48" r="1.9" fill="#4E3F8C"/><circle cx="68.16666666666667" cy="48" r="1.9" fill="#4E3F8C"/><circle cx="66" cy="46.1" r="1.52" fill="#4E3F8C" opacity="0.85"/><circle cx="64.2" cy="42" r="1.9" fill="#4E3F8C"/><circle cx="67.8" cy="42" r="1.9" fill="#4E3F8C"/><circle cx="66" cy="40.1" r="1.52" fill="#4E3F8C" opacity="0.85"/>
</svg>
